<svg width="241" height="219" viewBox="0 0 241 219" fill="none" xmlns="http://www.w3.org/2000/svg">
<rect x="22" y="22" width="197" height="197" rx="10" fill="#7287F9"/>
<path d="M218.582 156.794H22.4187C18.1974 156.794 14.7759 160.216 14.7759 164.437C14.7759 168.658 18.1974 172.08 22.4187 172.08H218.582C222.803 172.08 226.224 168.658 226.224 164.437C226.224 160.216 222.803 156.794 218.582 156.794Z" fill="#FF9838"/>
<path d="M157.44 187.11H83.5603C79.339 187.11 75.9175 190.532 75.9175 194.753C75.9175 198.974 79.339 202.396 83.5603 202.396H157.44C161.661 202.396 165.083 198.974 165.083 194.753C165.083 190.532 161.661 187.11 157.44 187.11Z" fill="#FF9838"/>
<path d="M120.5 64.3152C88.0489 64.3152 61.6509 90.7156 61.6509 123.164C61.6509 141.746 70.2793 158.919 85.323 170.281C88.6909 172.821 93.4803 172.152 96.0278 168.786C98.57 165.418 97.9026 160.626 94.5347 158.081C83.3508 149.639 76.936 136.911 76.936 123.164C76.936 99.1435 96.4782 79.6008 120.5 79.6008C144.523 79.6008 164.066 99.143 164.066 123.164C164.066 136.934 157.516 149.965 146.546 158.023C143.145 160.522 142.414 165.307 144.91 168.707C146.408 170.746 148.727 171.826 151.076 171.826C152.647 171.826 154.232 171.342 155.595 170.343C170.47 159.414 179.348 141.777 179.348 123.164C179.348 90.7156 152.95 64.3152 120.5 64.3152Z" fill="#FF9838"/>
<path d="M120.5 0.627808C116.278 0.627808 112.857 4.04935 112.857 8.27062V49.0317C112.857 53.253 116.278 56.6745 120.5 56.6745C124.721 56.6745 128.143 53.2506 128.143 49.0317V8.27062C128.143 4.04935 124.721 0.627808 120.5 0.627808Z" fill="#FF9838"/>
<path d="M233.357 113.486H192.596C188.375 113.486 184.953 116.907 184.953 121.129C184.953 125.35 188.375 128.771 192.596 128.771H233.357C237.578 128.771 241 125.35 241 121.129C241 116.907 237.578 113.486 233.357 113.486Z" fill="#FF9838"/>
<path d="M48.4039 113.486H7.64282C3.42155 113.486 0 116.907 0 121.128C0 125.349 3.42155 128.771 7.64282 128.771H48.4039C52.6252 128.771 56.0467 125.349 56.0467 121.128C56.0467 116.907 52.6252 113.486 48.4039 113.486Z" fill="#FF9838"/>
<path d="M205.897 35.731C202.912 32.7477 198.076 32.7454 195.091 35.731L166.303 64.5188C163.317 67.5045 163.317 72.3424 166.303 75.3281C167.796 76.8183 169.75 77.5649 171.706 77.5649C173.662 77.5649 175.619 76.8183 177.109 75.3281L205.897 46.5403C208.884 43.5546 208.884 38.7167 205.897 35.731Z" fill="#FF9838"/>
<path d="M74.6977 64.5186L45.9099 35.7308C42.9266 32.7452 38.0863 32.7452 35.103 35.7308C32.1174 38.7142 32.1174 43.5544 35.103 46.5377L63.8908 75.3255C65.381 76.8186 67.3377 77.5646 69.294 77.5646C71.2502 77.5646 73.207 76.8181 74.6972 75.3255C77.6833 72.3422 77.6833 67.5015 74.6977 64.5186Z" fill="#FF9838"/>
</svg>
